<svg xmlns="http://www.w3.org/2000/svg" xmlns:xlink="http://www.w3.org/1999/xlink" xml:space="preserve" version="1.1" style="shape-rendering:geometricPrecision;text-rendering:geometricPrecision;image-rendering:optimizeQuality;" viewBox="0 0 133.11 266.45" x="0px" y="0px" fill-rule="evenodd" clip-rule="evenodd"><defs><style type="text/css">
   
    .fil0 {fill:black}
   
  </style></defs><g><path class="fil0" d="M56.02 52.53l21.07 0 39.19 -45.99c8.18,-9.59 22.47,2.57 14.5,12.11 -8.88,10.61 -28.04,32.39 -40.02,46.77 -0.22,46.12 -0.35,92.24 -0.35,138.36 0,12.5 -20.65,12.49 -20.67,0l-0.09 -54.16c-0.01,-7.07 -6.06,-7.47 -6.06,0l-0.06 54.16c-0.01,12.49 -20.63,12.5 -20.67,0l-0.49 -138.36c-11.98,-14.38 -31.14,-36.17 -40.01,-46.77 -7.97,-9.54 6.32,-21.71 14.5,-12.11l39.18 45.99zm10.54 -52.53c12.73,0 23.06,10.32 23.06,23.06 0,12.73 -10.32,23.05 -23.06,23.05 -12.72,0 -23.05,-10.32 -23.05,-23.05 0,-12.73 10.33,-23.06 23.05,-23.06z"/></g><text x="0" y="228.16" fill="#000000" font-size="5px" font-weight="bold" font-family="'Helvetica Neue', Helvetica, Arial-Unicode, Arial, Sans-serif">Created by kareemov1000</text><text x="0" y="233.16" fill="#000000" font-size="5px" font-weight="bold" font-family="'Helvetica Neue', Helvetica, Arial-Unicode, Arial, Sans-serif">from the Noun Project</text></svg>