<svg height='100px' width='100px'  fill="#000000" xmlns:x="http://ns.adobe.com/Extensibility/1.0/" xmlns:i="http://ns.adobe.com/AdobeIllustrator/10.0/" xmlns:graph="http://ns.adobe.com/Graphs/1.0/" xmlns="http://www.w3.org/2000/svg" xmlns:xlink="http://www.w3.org/1999/xlink" version="1.1" x="0px" y="0px" viewBox="0 0 100 100" enable-background="new 0 0 100 100" xml:space="preserve"><g><g i:extraneous="self"><g><circle cx="47.7" cy="12.9" r="8.2"></circle><path d="M85.9,71.5c-0.9-1.6-3-2.2-4.6-1.2l-3.9,2.3L66.2,47.7c-0.4-1-1.3-1.7-2.4-1.9l-17.3-3.5l2.8-16.1     c0.2-1.2-0.2-2.4-1.1-3.1c-0.9-0.8-2.1-1-3.3-0.7l-19.8,6.3c-0.7,0.2-1.3,0.7-1.7,1.3L14,43c-1.1,1.5-0.7,3.6,0.8,4.7     c1.5,1.1,3.6,0.7,4.7-0.8l8.6-12.1l7.6-2.4l-2.6,13c0,0.2,0,0.3,0,0.5C23.8,50,17.3,59.3,17.3,70.1c0,14.5,11.8,26.4,26.4,26.4     c12.7,0,23.4-9.1,25.8-21.1l3.6,4.1c0.1,0.1,0.1,0.1,0.2,0.2c0.4,0.4,0.9,0.7,1.4,0.9c0.3,0.1,0.7,0.2,1,0.2     c0.6,0,1.2-0.2,1.7-0.5l7.2-4.1C86.3,75.2,86.8,73.1,85.9,71.5z M43.7,89.7c-10.8,0-19.6-8.8-19.6-19.6s8.8-19.6,19.6-19.6     s19.6,8.8,19.6,19.6S54.5,89.7,43.7,89.7z"></path></g></g></g></svg>